<svg id="Layer_1" data-name="Layer 1" xmlns="http://www.w3.org/2000/svg" xmlns:xlink="http://www.w3.org/1999/xlink" viewBox="0 0 868 430.43"><defs><style>.cls-1{fill:none;}.cls-2{fill:#d9d9da;}.cls-3{fill:#848484;}.cls-4{fill:#814c9e;}.cls-5{fill:#b7b7b8;}.cls-6{fill:#f8d6b7;}.cls-7{fill:#231f20;}.cls-8{fill:#cecfcf;}.cls-9{fill:#3a3436;}.cls-10,.cls-32,.cls-33{fill:#fff;}.cls-11{fill:#5dc5c1;}.cls-12{fill:#ef528e;}.cls-13{clip-path:url(#clip-path);}.cls-14{fill:#03386e;}.cls-15{fill:#1b4f7f;}.cls-16{fill:#3dd4e9;}.cls-17{fill:#7dc983;}.cls-18{fill:#43b8c9;}.cls-19{fill:#ffdb79;}.cls-20{fill:#9bdde7;}.cls-21{fill:#f77b55;}.cls-22{fill:#ffd45b;}.cls-23{fill:#ccc;}.cls-24{fill:#adecf7;}.cls-25{fill:#f26d6e;}.cls-26{fill:#a6a9ab;}.cls-27,.cls-28,.cls-29,.cls-32,.cls-33{isolation:isolate;}.cls-28,.cls-29,.cls-33{font-size:8px;}.cls-28,.cls-29,.cls-32,.cls-33{font-family:SegoeUI-Light, Segoe UI;}.cls-29{letter-spacing:-0.05em;}.cls-30{fill:#e62c34;}.cls-31{fill:#08c6a2;}.cls-32{font-size:7px;}.cls-34{fill:#e6e6e6;}.cls-35{fill:#363f48;}.cls-36{fill:#fefefe;}.cls-37{fill:#01b9ad;}.cls-38{fill:#bbbabe;}.cls-39{fill:#e9e8e8;}</style><clipPath id="clip-path"><rect class="cls-1" x="117.1" y="26.27" width="394.82" height="213.54"/></clipPath></defs><title>Artboard 3</title><path id="_Path_7" data-name=" Path 7" class="cls-2" d="M868,316.73H0V248.05H782.48Z"/><ellipse id="_Path_8" data-name=" Path 8" class="cls-3" cx="314.94" cy="297" rx="241.7" ry="4.58"/><ellipse id="_Path_9" data-name=" Path 9" class="cls-3" cx="652" cy="296.99" rx="44.94" ry="2.78"/><g id="_Group_2" data-name=" Group 2"><rect id="_Rectangle_2" data-name=" Rectangle 2" class="cls-4" x="612.29" y="184.45" width="88.82" height="10.83" transform="matrix(0.17, -0.99, 0.99, 0.17, 358.15, 804.81)"/><rect id="_Rectangle_3" data-name=" Rectangle 3" class="cls-5" x="614.97" y="187.6" width="88.82" height="5.41" transform="translate(359.94 807.83) rotate(-80.23)"/><path id="_Path_10" data-name=" Path 10" class="cls-6" d="M643.83,232.69l3,14.49,7.67-12.65.6-3.54-2.57,3.2-2.75-4.13-3.64,3-1.72-3.94Z"/><path id="_Path_11" data-name=" Path 11" class="cls-7" d="M646.83,247.19l3.25-5.37-2.26-.42-2.27-.36Z"/></g><g id="_Group_3" data-name=" Group 3"><circle id="_Path_12" data-name=" Path 12" class="cls-8" cx="646.51" cy="267.42" r="1.04"/><rect id="_Rectangle_4" data-name=" Rectangle 4" class="cls-7" x="641.09" y="144.31" width="10.83" height="108.87"/><path id="_Rectangle_5" data-name=" Rectangle 5" class="cls-7" d="M643.48,133h6.06a3.67,3.67,0,0,1,3.68,3.62v50.47H639.81V136.66A3.67,3.67,0,0,1,643.48,133Z"/><rect id="_Rectangle_6" data-name=" Rectangle 6" class="cls-5" x="641.09" y="187.18" width="10.83" height="1.53"/><path id="_Path_13" data-name=" Path 13" class="cls-7" d="M653.22,140.64v1.55h1.95v36.54a1.33,1.33,0,0,0-1.05,1.3v4.84a1.36,1.36,0,0,0,1.36,1.36h1.24V140.64Z"/><rect id="_Rectangle_7" data-name=" Rectangle 7" class="cls-9" x="641.09" y="253.17" width="10.83" height="4.25"/><path id="_Path_14" data-name=" Path 14" class="cls-7" d="M647.57,267.42l4.35-10H641.09l4.35,10Z"/></g><g id="_Group_4" data-name=" Group 4"><circle id="_Path_15" data-name=" Path 15" class="cls-10" cx="704.44" cy="139.76" r="1.04" transform="translate(319.72 746.19) rotate(-68.83)"/><rect id="_Rectangle_8" data-name=" Rectangle 8" class="cls-11" x="625.22" y="198.33" width="108.87" height="10.83" transform="translate(244.21 763.95) rotate(-68.83)"/><path id="_Rectangle_9" data-name=" Rectangle 9" class="cls-11" d="M658.75,266.11l-5.65-2.19a3.67,3.67,0,0,1-2.1-4.74h0l18.23-47.07,12.5,4.84L663.5,264a3.67,3.67,0,0,1-4.74,2.09Z"/><rect id="_Rectangle_10" data-name=" Rectangle 10" class="cls-5" x="674.99" y="208.4" width="1.53" height="10.83" transform="translate(232.34 766.75) rotate(-68.83)"/><path id="_Path_16" data-name=" Path 16" class="cls-11" d="M652.32,255.52l.56-1.44-1.81-.7,13.2-34a1.33,1.33,0,0,0,1.44-.84l1.75-4.52a1.36,1.36,0,0,0-.77-1.75l-1.16-.45-.82,2.12-1.92,4.93-13.64,35.37Z"/><rect id="_Rectangle_11" data-name=" Rectangle 11" class="cls-10" x="697.95" y="145.58" width="4.25" height="10.83" transform="translate(306.45 749.3) rotate(-68.83)"/><path id="_Path_17" data-name=" Path 17" class="cls-11" d="M703.43,139.34l-7.66,7.75L705.86,151l-.45-10.89Z"/></g><g id="_Group_5" data-name=" Group 5"><rect id="_Rectangle_12" data-name=" Rectangle 12" class="cls-12" x="626.72" y="162.7" width="10.83" height="88.82" transform="translate(-25.64 107.98) rotate(-9.57)"/><rect id="_Rectangle_13" data-name=" Rectangle 13" class="cls-5" x="632.09" y="162.25" width="5.41" height="88.82" transform="matrix(0.99, -0.17, 0.17, 0.99, -25.52, 108.41)"/><path id="_Path_18" data-name=" Path 18" class="cls-6" d="M634.18,251.77l7.63,12.68,3-14.48-.6-3.54-1.36,3.88-4-3-2.42,4-2.92-3.16Z"/><path id="_Path_19" data-name=" Path 19" class="cls-7" d="M641.8,264.45l1.3-6.19-2.27.36-2.26.4Z"/></g><g id="_Group_6" data-name=" Group 6"><rect id="_Rectangle_14" data-name=" Rectangle 14" class="cls-12" x="628.67" y="208.19" width="88.82" height="10.83" transform="translate(390.63 860.82) rotate(-84.03)"/><rect id="_Rectangle_15" data-name=" Rectangle 15" class="cls-5" x="631.37" y="211.17" width="88.82" height="5.41" transform="translate(392.77 863.75) rotate(-84.03)"/><path id="_Path_20" data-name=" Path 20" class="cls-6" d="M672.31,168.92l6.82-13.13L683.07,170l-.37,3.57-1.61-3.77-3.77,3.22-2.68-3.9-2.71,3.34Z"/><path id="_Path_21" data-name=" Path 21" class="cls-7" d="M679.13,155.78l1.67,6-2.29-.22-2.27-.26Z"/></g><g id="Layer_1-2" data-name="Layer 1"><path id="_Path_22" data-name=" Path 22" class="cls-8" d="M314.51,282.21H69.16c0,5.45,6.06,10.09,14.39,11l13,1.45a373.37,373.37,0,0,0,41.55,2.3H491a373.38,373.38,0,0,0,41.55-2.3l13-1.45c8.31-.93,14.39-5.58,14.39-11Z"/><path id="_Path_23" data-name=" Path 23" class="cls-10" d="M97.64,261.36V22.92A23,23,0,0,1,120.58,0H508.47a23,23,0,0,1,22.94,22.94V261.36Z"/><path id="_Rectangle_16" data-name=" Rectangle 16" class="cls-7" d="M122.83,2.77H506.18a22.43,22.43,0,0,1,22.4,22.43V258.57H100.41V25.2A22.43,22.43,0,0,1,122.83,2.77Z"/><path id="_Path_24" data-name=" Path 24" class="cls-8" d="M528.59,258.57H100.41L69.13,282.21H559.88Z"/><g id="_Group_7" data-name=" Group 7"><g class="cls-13"><g id="Mask_Group_1" data-name="Mask Group 1"><g id="_123" data-name=" 123"><g id="Background"><rect id="Background_1" data-name="Background 1" class="cls-14" x="117.74" y="26.27" width="393.54" height="213.54"/><circle id="Background_2" data-name="Background 2" class="cls-15" cx="314.51" cy="133.04" r="71"/></g><g id="Domain_Checker" data-name="Domain Checker"><path id="Path_102" data-name="Path 102" class="cls-16" d="M358.56,138.59a46.47,46.47,0,1,0-46.48-46.47h0A46.56,46.56,0,0,0,358.56,138.59Z"/><path id="Path_103" data-name="Path 103" class="cls-17" d="M404.25,100.62a45.84,45.84,0,0,1-4,12.08h-37a6.06,6.06,0,0,1-6-6h0a6.06,6.06,0,0,1,6-6Zm-3.65-28.35A46.38,46.38,0,0,1,405,92.12c0,.76,0,1.5-.05,2.25a11.18,11.18,0,0,1-4.26.83H369.64a11.49,11.49,0,0,1-11.46-11.46h0a11.49,11.49,0,0,1,11.46-11.46ZM315.17,108.8a46,46,0,0,1-3.07-16h15a3.34,3.34,0,0,1,3.33,3.33h0a3.31,3.31,0,0,1-.3,1.37h8.56a5.7,5.7,0,0,1,5.67,5.68h0a5.69,5.69,0,0,1-5.68,5.67Zm3.32-40.23a46.6,46.6,0,0,1,6.31-8.39h17.86a4.2,4.2,0,0,1,4.2,4.2h0a4.21,4.21,0,0,1-4.2,4.2Z"/><path id="Path_104" data-name="Path 104" class="cls-10" d="M379.91,103.28a6.35,6.35,0,0,0,5.93-4.09,5.55,5.55,0,0,0,1.76-4.06h0A5.59,5.59,0,0,0,382,89.56h-3.85a7.81,7.81,0,1,0-14.61-3.84c0,.07,0,.13,0,.2a4.58,4.58,0,0,0-6,3.64h-2.89a5.58,5.58,0,0,0-5.57,5.57h0a5.58,5.58,0,0,0,5.57,5.57h4.49a6.33,6.33,0,0,0,11.43,0h4.15a6.32,6.32,0,0,0,5.09,2.57Zm8.54-46.75A47.31,47.31,0,0,1,395.54,64H374.8a2.91,2.91,0,0,1-2.06.85,2.83,2.83,0,0,1-.91-.15v.14a5,5,0,0,1-9.92,0h0a5,5,0,0,1,.65-2.45h-2.45a3.54,3.54,0,0,1-3.53-3.53h0a3.55,3.55,0,0,1,1.11-2.57,4,4,0,0,1,7-1h2.64a4,4,0,0,1,7.25,0h2.86a3.58,3.58,0,0,1,2.69,1.25ZM322.34,69.8a5.64,5.64,0,0,1,2.34.51,5.48,5.48,0,0,1,2-.51,3.94,3.94,0,0,1-.2-1.2,4.86,4.86,0,0,1,9.68,0,4.17,4.17,0,0,1-.8,2.42A3.35,3.35,0,0,1,338,74.1a2.88,2.88,0,0,1-.57,1.68c2.16.42,3.56,1.07,3.56,1.79,0,1.26-4.18,2.29-9.35,2.29a31.54,31.54,0,0,1-5.68-.47,5.48,5.48,0,1,1-3.65-9.57Z"/><path id="Path_105" data-name="Path 105" class="cls-10" d="M248.11,95.7H379.9a3.87,3.87,0,0,1,3.87,3.86v86.82a3.86,3.86,0,0,1-3.87,3.85H248.11a3.86,3.86,0,0,1-3.84-3.85V99.56A3.87,3.87,0,0,1,248.11,95.7Z"/><path id="Path_106" data-name="Path 106" class="cls-18" d="M247.07,95.7H380.95a2.83,2.83,0,0,1,2.82,2.82v8.63a.24.24,0,0,1-.24.23H244.27V98.52A2.82,2.82,0,0,1,247.07,95.7Z"/><path id="Path_107" data-name="Path 107" class="cls-19" d="M251.15,104a2.56,2.56,0,1,0-2.56-2.56,2.56,2.56,0,0,0,2.56,2.56Z"/><path id="Path_108" data-name="Path 108" class="cls-20" d="M258.31,104a2.56,2.56,0,1,0-2.56-2.56,2.56,2.56,0,0,0,2.56,2.56Z"/><path id="Path_109" data-name="Path 109" class="cls-21" d="M265.47,104a2.56,2.56,0,1,0-2.56-2.56,2.56,2.56,0,0,0,2.56,2.56Z"/><rect id="Rectangle_66" data-name="Rectangle 66" class="cls-10" x="271.91" y="99.26" width="107.87" height="4.86"/><path id="Path_110" data-name="Path 110" class="cls-22" d="M259.77,122.37h110a3.53,3.53,0,0,1,3.52,3.52v7a3.53,3.53,0,0,1-3.52,3.52h-110a3.53,3.53,0,0,1-3.53-3.52v-7A3.53,3.53,0,0,1,259.77,122.37Z"/><rect id="Rectangle_67" data-name="Rectangle 67" class="cls-23" x="299.91" y="114.05" width="29.7" height="2.15"/><rect id="Rectangle_68" data-name="Rectangle 68" class="cls-23" x="263.6" y="114.05" width="29.72" height="2.15"/><rect id="Rectangle_69" data-name="Rectangle 69" class="cls-23" x="337.23" y="114.05" width="29.7" height="2.15"/><path id="Path_111" data-name="Path 111" class="cls-24" d="M269.48,165.43a10.24,10.24,0,1,0-10.24-10.24h0A10.24,10.24,0,0,0,269.48,165.43Z"/><path id="Path_112" data-name="Path 112" class="cls-25" d="M263.79,153l5.33,9.08,12.57-20.61-12.26,14.06Z"/><rect id="Rectangle_70" data-name="Rectangle 70" class="cls-26" x="289.24" y="150.21" width="48.28" height="1.53"/><rect id="Rectangle_71" data-name="Rectangle 71" class="cls-26" x="308.55" y="154.57" width="28.97" height="1.53"/><rect id="Rectangle_72" data-name="Rectangle 72" class="cls-26" x="288.66" y="158.91" width="31.72" height="1.54"/><rect id="Rectangle_73" data-name="Rectangle 73" class="cls-26" x="328.44" y="158.91" width="9.08" height="1.54"/><rect id="Rectangle_74" data-name="Rectangle 74" class="cls-26" x="294.37" y="154.57" width="5.11" height="1.53"/><g id="www.condomedia.com" class="cls-27"><text class="cls-28" transform="translate(262.91 130.75)">ww</text><text class="cls-29" transform="translate(273.74 130.75)">w</text><text class="cls-28" transform="translate(278.75 130.75)">.condomedia.com</text></g><path id="Path_113" data-name="Path 113" class="cls-30" d="M348.52,145.66H391.2a5,5,0,0,1,5,5h0V190a5,5,0,0,1-5,5H348.52a5,5,0,0,1-5-5V150.63a5,5,0,0,1,5-5Z"/><rect id="Rectangle_75" data-name="Rectangle 75" class="cls-31" x="343.57" y="162.39" width="52.6" height="15.81"/><g id="_1." data-name=" 1." class="cls-27"><text class="cls-32" transform="translate(350.77 156.54)">1.</text></g><g id="_2." data-name=" 2." class="cls-27"><text class="cls-33" transform="translate(350.77 172.94)">2.</text></g><g id="_3." data-name=" 3." class="cls-27"><text class="cls-33" transform="translate(350.77 188.96)">3.</text></g><rect id="Rectangle_76" data-name="Rectangle 76" class="cls-10" x="359.72" y="151.88" width="32.27" height="1.53"/><rect id="Rectangle_77" data-name="Rectangle 77" class="cls-10" x="372.62" y="156.24" width="19.36" height="1.53"/><rect id="Rectangle_78" data-name="Rectangle 78" class="cls-10" x="363.15" y="156.24" width="3.42" height="1.53"/><rect id="Rectangle_79" data-name="Rectangle 79" class="cls-10" x="368.65" y="168.12" width="19.36" height="1.53"/><rect id="Rectangle_80" data-name="Rectangle 80" class="cls-10" x="359.33" y="172.46" width="21.2" height="1.54"/><rect id="Rectangle_81" data-name="Rectangle 81" class="cls-10" x="359.33" y="185.99" width="21.2" height="1.54"/><rect id="Rectangle_82" data-name="Rectangle 82" class="cls-10" x="385.92" y="185.99" width="6.07" height="1.54"/><rect id="Rectangle_83" data-name="Rectangle 83" class="cls-10" x="359.56" y="168.12" width="3.42" height="1.53"/><path id="Path_114" data-name="Path 114" class="cls-34" d="M296.88,198.15a11,11,0,0,1,3.61,2.6l4.14-1.88,2.91,6.41-4.14,1.86a11.31,11.31,0,0,1,0,2.25,11.67,11.67,0,0,1-.45,2.19l3.69,2.65-4.1,5.71-3.69-2.63a11.12,11.12,0,0,1-4.05,1.84l-.45,4.52-7-.69.45-4.51a11.42,11.42,0,0,1-3.63-2.6L280,217.74l-2.91-6.4,4.14-1.88a11.19,11.19,0,0,1,0-2.23,11.77,11.77,0,0,1,.43-2.2L278,202.39l4.09-5.72,3.69,2.65a11.1,11.1,0,0,1,4.06-1.85l.45-4.52,7,.69Z"/><path id="Path_115" data-name="Path 115" class="cls-35" d="M292.68,204.81a3.91,3.91,0,1,0,3.92,3.91,3.91,3.91,0,0,0-3.92-3.91Zm.34-3.38a6.91,6.91,0,1,1-5.07,1.54A6.91,6.91,0,0,1,293,201.42Z"/><path id="Path_116" data-name="Path 116" class="cls-34" d="M271.46,199.87a8.48,8.48,0,0,1,1.1,3.18l3.38.66-1,5.22-3.37-.65a8.05,8.05,0,0,1-1,1.38,8.29,8.29,0,0,1-1.23,1.16l1.12,3.25-5,1.73-1.11-3.25a8.51,8.51,0,0,1-3.3-.64l-2.27,2.59-4-3.5,2.25-2.59a8.63,8.63,0,0,1-1.1-3.18l-3.37-.66,1-5.23,3.38.65a8.56,8.56,0,0,1,1-1.38,9.06,9.06,0,0,1,1.23-1.16L258,194.21l5-1.73,1.12,3.26a8.44,8.44,0,0,1,3.3.64l2.26-2.59,4,3.49Z"/><path id="Path_117" data-name="Path 117" class="cls-35" d="M266,202.13a2.66,2.66,0,1,1-3.75.26h0A2.66,2.66,0,0,1,266,202.13Zm1.69-1.94a5.22,5.22,0,1,1-3.8-1.29A5.22,5.22,0,0,1,267.65,200.19Z"/><path id="Path_118" data-name="Path 118" class="cls-36" d="M236.5,126.92a1,1,0,1,1-.18-2.07h2.85a1,1,0,1,1,.09,2.08H236.5Zm-6.47.16a1,1,0,1,1,1.3,1.62l-.1.07h0l-.05,0-.05,0,0,0-.05,0-.05,0,0,0-.05,0,0,0-.05,0,0,0-.05,0,0,0-.05,0,0,0-.05,0,0,0-.05,0,0,0,0,0-.05,0,0,0,0,.05-.05,0,0,0,0,0-.05,0,0,0,0,0,0,.05,0,0h0a1,1,0,0,1-1.49-1.43v0l.05,0,0-.05.05-.05.05-.05.05-.05.05,0,.05-.05.05-.05.05-.05.05,0,.05-.05.05-.05.05,0,.06-.06.05,0,.05-.05.07,0,.05-.05.05,0,.05-.05.05,0,.07-.05.05,0,.05,0,.07-.05.05,0,.05,0,.07,0,.05,0,.07-.05Zm-4.93,7.39a1,1,0,0,1,2,.45h0v1.86h0a1,1,0,0,1-2.06-.05v-2l0-.08v-.22Zm-.28,8.51a1,1,0,0,1,2.08,0v2.08a1,1,0,1,1-2.08.09s0-.06,0-.09Zm0,8.32a1,1,0,1,1,2.08-.09s0,.06,0,.09v2.08a1,1,0,1,1-2.08.09s0-.06,0-.09Zm0,8.32a1,1,0,0,1,2.08,0v2.07a1,1,0,0,1-2.08.09s0-.06,0-.09Zm0,8.31a1,1,0,0,1,2.08,0V170a1,1,0,0,1-2.08.09s0-.06,0-.09Zm0,8.32a1,1,0,0,1,2.08-.09s0,.06,0,.09v2.08a1,1,0,0,1-2.08.09s0-.06,0-.09Zm0,8.32a1,1,0,0,1,2.08,0v2.06a1,1,0,0,1-2.08.09s0-.06,0-.09Zm0,8.31a1,1,0,0,1,2.08,0V195a1,1,0,0,1-2.08,0Zm.57,8.59a1,1,0,0,1,1.95-.72l0,.08v.06l0,.05v.12l0,.05v.05l0,.07,0,.05v.05l0,.07,0,.05v.05l0,.05,0,.07v.05l0,.05,0,.05,0,.07,0,.05V202l0,.05,0,.05,0,.05,0,.07,0,.05,0,.05,0,.05,0,.05,0,.05,0,.05v0a1,1,0,0,1-1.83,1l0,0,0-.07,0-.07,0-.07,0-.07,0-.07,0-.07,0-.07,0-.07,0-.07,0-.07,0-.07,0-.07,0-.07,0-.07,0-.07,0-.07,0-.07,0-.07,0-.07,0-.08,0-.07,0-.07V202l0-.07,0-.08,0-.07,0-.07,0-.07v-.12Zm5.54,6.93a1,1,0,0,1-.38-1.42h0a1.06,1.06,0,0,1,1.44-.38h0l.05,0,.05,0,.05,0,.05,0,.05,0,.05,0,.05,0,.05,0,.05,0,.05,0,.05,0,.05,0,.05,0,.05,0,.07,0,.05,0,.05,0,.05,0,.05,0,.05,0,.07,0h.05l.05,0,.05,0,.07,0h.05l.05,0,.05,0h.07l.05,0h0a1,1,0,0,1-.69,2h0l-.07,0-.08,0-.07,0-.07,0-.07,0-.07,0-.07,0-.07,0-.08,0-.07,0-.07,0-.07,0-.07,0-.07,0,0,0-.07,0-.07,0-.07,0-.07,0-.05,0-.07,0-.07,0-.07,0-.07,0-.07,0-.07,0-.05,0-.07,0-.07,0-.07,0Zm8.56,1.68a1,1,0,0,1,0-2.08h2.09a1,1,0,0,1,0,2.08Zm8.32,0a1,1,0,0,1-.09-2.08h2.18a1,1,0,0,1,0,2.08Zm59.42,0a1,1,0,1,1-.09-2.08h1.27a1,1,0,1,1,.09,2.08h-1.27Zm7.12,0a1,1,0,0,1,0-2.08h2.08a1,1,0,0,1,0,2.08Zm8.32,0a1,1,0,0,1,0-2.08h2.07a1,1,0,1,1,.09,2.08h-2.16Zm8.31,0a1,1,0,0,1,0-2.08h2.08a1,1,0,0,1,0,2.08Zm8.32,0a1,1,0,0,1,0-2.08h2.09a1,1,0,0,1,.09,2.08H339.3Zm8.32,0a1,1,0,0,1-.09-2.08h2.16a1,1,0,0,1,.09,2.08h-2.16Zm8.31,0a1,1,0,0,1,0-2.08H358a1,1,0,0,1,.09,2.08h-2.18Zm8.32,0a1,1,0,0,1,0-2.08h2.08a1,1,0,0,1,0,2.08Zm8.32,0a1,1,0,0,1,0-2.08h2.07a1,1,0,0,1,0,2.08Zm8.31,0a1,1,0,0,1,0-2.08H383a1,1,0,0,1,0,2.08Zm8.32,0a1,1,0,0,1,0-2.08h2.08a1,1,0,0,1,.09,2.08H389.2Zm8.52-.29a1,1,0,1,1-.45-2h.19l.07,0h.3l.05,0H398l.07,0h.12l.05,0h.05l.07,0h.05l.06,0h.07l.05,0h.05l.07,0,.05,0h.05l.05,0,.07,0,.05,0h.05a1,1,0,1,1,.88,1.88l-.06,0h0l-.07,0-.07,0-.07,0-.07,0-.07,0-.07,0-.08,0-.07,0-.07,0-.07,0-.08,0-.07,0-.07,0h-.07l-.08,0-.07,0h-.07l-.08,0-.07,0h-.07l-.08,0h-.07l-.07,0h-.15l-.08,0h-.15l-.07,0h-.09Zm7.4-4.91a1,1,0,0,1-1.71-1.2l0,0,0,0,0-.05,0-.05,0-.05,0,0,0-.05,0-.05,0-.05,0-.05,0-.05,0-.05,0,0,0-.05,0-.05,0-.05,0-.05,0-.05,0-.05,0-.05,0-.05,0-.05,0-.05,0-.05,0-.05,0-.05,0-.05,0-.05,0-.07v-.05l0,0a1,1,0,0,1,1.38-.52h0a1.05,1.05,0,0,1,.51,1.38l0,.05,0,.07,0,.07,0,.07,0,.07,0,.07,0,.07,0,.07,0,.07,0,.07,0,.05,0,.07,0,.07,0,.07,0,.07,0,.05,0,.07,0,.07,0,.05,0,.07,0,.07,0,.05,0,.07,0,.07,0,.05,0,.07,0,.05,0,.07,0,.05,0,.07Zm2.27-8.49a1,1,0,0,1-2.08,0v-2.07a1,1,0,1,1,2.08,0h0Zm0-8.32a1,1,0,1,1-2.08,0h0V186a1,1,0,1,1,2.08,0h0Zm0-8.31a1,1,0,0,1-2.08,0v-2.08a1,1,0,0,1,2.08,0h0Zm0-8.32a1,1,0,1,1-2.08,0h0v-2.07a1,1,0,1,1,2.08,0h0Zm0-8.32a1,1,0,0,1-2.08,0v-2.07a1,1,0,1,1,2.08,0h0Zm0-8.31a1,1,0,0,1-2.08,0v-2.07a1,1,0,0,1,2.08,0Zm0-8.32a1,1,0,0,1-2.08,0h0v-2.07a1,1,0,0,1,2.08,0h0Zm0-8.32a1,1,0,0,1-2.08,0v-2a1,1,0,0,1,2.07-.2v2.19Zm-2.47-8.44a1,1,0,0,1-1.65,1.26l0,0,0-.05,0,0,0-.05,0,0,0-.05,0,0,0-.05,0-.05,0,0,0,0,0-.05,0,0,0-.05,0,0,0,0,0-.05,0,0,0,0-.05-.05,0,0,0,0,0,0,0-.05,0,0-.05,0,0,0,0,0,0,0-.05,0,0-.05h0a1,1,0,0,1-.07-1.47,1,1,0,0,1,1.46-.07h0l.05.05.05.05.05.05.05,0,.05.05.05.05,0,.05.05.05.05,0,.05.05.05.05,0,.05.05.05.05.05,0,.05.05.05.05.05,0,.05.05.05,0,.07.05.05.05.05,0,.05,0,.05.05.07,0,.05.05.05,0,.05,0,.07.05.05ZM398,125a1,1,0,0,1-.38,2h-1.89a1,1,0,0,1,0-2.08H398Zm-7.89-.22a1,1,0,0,1,0,2.08H388a1,1,0,0,1-.09-2.08h2.18Z"/><path id="Path_119" data-name="Path 119" class="cls-37" d="M283.25,46.86a12.37,12.37,0,0,0-12.1,8.8c-5.67.62-10.07,5.14-10.07,10.61,0,5.9,5.1,10.69,11.39,10.69h29.23c5.43,0,9.82-4.14,9.82-9.23a9.23,9.23,0,0,0-5.94-8.47.83.83,0,0,0,0-.2,6.75,6.75,0,0,0-7-6.52,7.21,7.21,0,0,0-4,1.2,12.56,12.56,0,0,0-11.38-6.89Z"/><path id="Path_120" data-name="Path 120" class="cls-37" d="M251.75,75.31a6.18,6.18,0,0,0-6,4.4,5.46,5.46,0,0,0-5,5.3,5.52,5.52,0,0,0,5.69,5.33H261a4.77,4.77,0,0,0,4.91-4.6,4.6,4.6,0,0,0-3-4.24v-.1a3.38,3.38,0,0,0-3.48-3.26,3.64,3.64,0,0,0-2,.6,6.26,6.26,0,0,0-5.68-3.44Z"/></g></g></g><path id="_Path_25" data-name=" Path 25" class="cls-5" d="M314.51,282.21H69.16c0,5.45,6.06,10.09,14.39,11l13,1.45a373.37,373.37,0,0,0,41.55,2.3H491a373.38,373.38,0,0,0,41.55-2.3l13-1.45c8.31-.93,14.39-5.58,14.39-11Z"/><path id="_Path_26" data-name=" Path 26" class="cls-10" d="M72.52,288.83h484a8.9,8.9,0,0,0,3.39-6.62H69.16A8.89,8.89,0,0,0,72.52,288.83Z"/><g id="_Group_8" data-name=" Group 8"><path id="_Path_27" data-name=" Path 27" class="cls-7" d="M206.82,269.69h16.71l3.25-6.95H210.71Z"/><path id="_Path_28" data-name=" Path 28" class="cls-7" d="M188.58,269.69h16.64l3.9-6.95h-16Z"/><path id="_Path_29" data-name=" Path 29" class="cls-7" d="M297.3,262.75H281.09l-1.3,6.95h16.86Z"/><path id="_Path_30" data-name=" Path 30" class="cls-7" d="M225.05,269.69h16.77l2.6-6.95H228.3Z"/><path id="_Path_31" data-name=" Path 31" class="cls-7" d="M243.3,269.69h16.8l1.95-6.95H245.9Z"/><path id="_Path_32" data-name=" Path 32" class="cls-7" d="M279.69,262.75h-16.2l-1.95,6.95h16.85Z"/><path id="_Path_33" data-name=" Path 33" class="cls-7" d="M152.12,269.69h16.5l5.2-6.95H158Z"/><path id="_Path_34" data-name=" Path 34" class="cls-7" d="M115.67,269.69H132l6.5-6.95H122.82Z"/><path id="_Path_35" data-name=" Path 35" class="cls-7" d="M170.35,269.69h16.57l4.55-6.95H175.55Z"/><path id="_Path_36" data-name=" Path 36" class="cls-7" d="M107.09,278H124.2l6.5-6.95H114.25Z"/><path id="_Path_37" data-name=" Path 37" class="cls-7" d="M298.06,269.69h16.88v-6.95H298.71Z"/><path id="_Path_38" data-name=" Path 38" class="cls-7" d="M133.9,269.69h16.41l5.85-6.95H140.41Z"/><path id="_Path_39" data-name=" Path 39" class="cls-7" d="M389.2,269.69H406l-3.26-6.95h-16.1Z"/><path id="_Path_40" data-name=" Path 40" class="cls-7" d="M444.1,269.69h16.57l-5.2-6.95H439.55Z"/><path id="_Path_41" data-name=" Path 41" class="cls-7" d="M462.4,269.69h16.49L473,262.75H457.2Z"/><path id="_Path_42" data-name=" Path 42" class="cls-7" d="M480.72,269.69h16.41l-6.51-6.95H474.87Z"/><path id="_Path_43" data-name=" Path 43" class="cls-7" d="M425.8,269.69h16.63l-4.55-6.95h-16Z"/><path id="_Path_44" data-name=" Path 44" class="cls-7" d="M515.35,269.69l-7.16-6.95H492.52l6.51,6.95Z"/><path id="_Path_45" data-name=" Path 45" class="cls-7" d="M334.35,269.69h16.86l-1.28-6.95H333.72Z"/><path id="_Path_46" data-name=" Path 46" class="cls-7" d="M352.64,269.69h16.85l-1.95-6.95h-16.2Z"/><path id="_Path_47" data-name=" Path 47" class="cls-7" d="M316.32,269.69H333l-.65-6.95h-16Z"/><path id="_Path_48" data-name=" Path 48" class="cls-7" d="M370.92,269.69h16.8l-2.6-6.95H369Z"/><path id="_Path_49" data-name=" Path 49" class="cls-7" d="M407.5,269.69h16.71l-3.91-6.95h-16Z"/><path id="_Path_50" data-name=" Path 50" class="cls-7" d="M149.13,271.09H132.6L126.1,278h17.19Z"/><path id="_Path_51" data-name=" Path 51" class="cls-7" d="M498.43,271.09H481.89l5.85,6.95h17.18Z"/><path id="_Path_52" data-name=" Path 52" class="cls-7" d="M443.34,271.09H426.58l3.9,6.95h17.43Z"/><path id="_Path_53" data-name=" Path 53" class="cls-7" d="M461.7,271.09H445l4.55,6.95h17.36Z"/><path id="_Path_54" data-name=" Path 54" class="cls-7" d="M425,271.09H408.15L411.4,278h17.48Z"/><path id="_Path_55" data-name=" Path 55" class="cls-7" d="M406.62,271.09H389.73l2.6,6.95h17.54Z"/><path id="_Path_56" data-name=" Path 56" class="cls-7" d="M480.07,271.09H463.44l5.21,6.95h17.26Z"/><path id="_Path_57" data-name=" Path 57" class="cls-7" d="M538.14,271v.08H518.77l7.16,6.95h21.52Z"/><path id="_Path_58" data-name=" Path 58" class="cls-7" d="M113.68,269.69l7.16-6.95h-19l-9.2,6.95Z"/><path id="_Path_59" data-name=" Path 59" class="cls-7" d="M112.26,271.09H90.77L81.57,278h23.52Z"/><path id="_Path_60" data-name=" Path 60" class="cls-7" d="M388.25,271.09H371.31l1.95,6.95h17.59Z"/><path id="_Path_61" data-name=" Path 61" class="cls-7" d="M516.77,271.09H500.33l6.5,6.95h17.11Z"/><path id="_Path_62" data-name=" Path 62" class="cls-7" d="M517.35,269.69H536.4l-9.2-6.95h-17Z"/><path id="_Path_63" data-name=" Path 63" class="cls-7" d="M167.57,271.09H151L145.1,278h17.28Z"/><path id="_Path_64" data-name=" Path 64" class="cls-7" d="M241.29,271.09H224.4L221.15,278h17.54Z"/><path id="_Path_65" data-name=" Path 65" class="cls-7" d="M222.87,271.09H206l-3.9,6.95h17.48Z"/><path id="_Path_66" data-name=" Path 66" class="cls-7" d="M259.72,271.09H242.78l-2.6,6.95h17.59Z"/><path id="_Path_67" data-name=" Path 67" class="cls-7" d="M204.45,271.09H187.67L183.12,278h17.43Z"/><path id="_Path_68" data-name=" Path 68" class="cls-7" d="M186,271.09H169.32L164.11,278h17.36Z"/><path id="_Path_69" data-name=" Path 69" class="cls-7" d="M278.12,271.09h-17L259.21,278h17.62Z"/><path id="_Path_70" data-name=" Path 70" class="cls-7" d="M351.48,271.09h-17l.63,6.95h17.65Z"/><path id="_Path_71" data-name=" Path 71" class="cls-7" d="M333.08,271.09H316.33V278h17.4Z"/><path id="_Path_72" data-name=" Path 72" class="cls-7" d="M296.53,271.09h-17L278.25,278h17.63Z"/><path id="_Path_73" data-name=" Path 73" class="cls-7" d="M369.87,271.09h-17l1.28,6.95h17.63Z"/><path id="_Path_74" data-name=" Path 74" class="cls-7" d="M314.94,271.09h-17l-.63,6.95h17.65Z"/></g></g></g><rect id="_Rectangle_17" data-name=" Rectangle 17" class="cls-38" y="316.73" width="867.98" height="29.39"/><rect id="_Rectangle_18" data-name=" Rectangle 18" class="cls-38" y="346.12" width="760.28" height="84.3"/><rect id="_Rectangle_19" data-name=" Rectangle 19" class="cls-5" y="346.12" width="760.28" height="16.47"/><path id="_Rectangle_20" data-name=" Rectangle 20" class="cls-39" d="M618.74,231.92h66.51v49.5a15.65,15.65,0,0,1-15.65,15.65h-35.2a15.65,15.65,0,0,1-15.65-15.65Z"/><rect id="_Rectangle_21" data-name=" Rectangle 21" class="cls-39" x="615.43" y="222.65" width="73.15" height="9.27" rx="2.61" ry="2.61"/><rect id="_Rectangle_22" data-name=" Rectangle 22" class="cls-5" x="618.74" y="231.92" width="66.51" height="3.79"/></g></svg>